# xmcd
# 
# Track frame offsets:
#   150
#   13970
#   35411
#   48407
#   63303
#   80567
#   97362
#   110210
#   125937
#   139345
#   153943
#   169119
#   181902
#   194145
#   209017
# 
# Disc length: 2955 seconds
# 
# Revision: 1
# Processed by: cddbd v1.5.2PL0 Copyright (c) Steve Scherf et al.
# Submitted via: Synapstar 1.0 
# 
DISCID=ee0b890f
DTITLE=Various Artist - DG08
DYEAR=1900
DGENRE=Country
TTITLE0=Haggard, Merle - Everybody Has The Blues
TTITLE1=Haggard, Merle - Are The Good Times Really Over
TTITLE2=Haggard, Merle - If We Make It Through December
TTITLE3=Haggard, Merle - Twinkle Twinkle Lucky Star
TTITLE4=Haggard, Merle - Going Where The Lonely Go
TTITLE5=Haggard, Merle - I Think I'll Just Stay Here And Drink
TTITLE6=Haggard, Merle - It's Been A Great Afternoon
TTITLE7=Haggard, Merle - Chill Factor
TTITLE8=Haggard, Merle - Things Aren't Funny Anymore
TTITLE9=Nelson, Willie - My Heros Will Always Be Cowboys
TTITLE10=Tillis, Pam - Don't Tell Me What To Do
TTITLE11=Jennings, Waylon - Eagle
TTITLE12=Parton, Dolly - Why'd You Come In Here
TTITLE13=Jackson, Alan - Summertime Blues
TTITLE14=Tritt, Travis - Here's A Quarter
EXTD=MediaType: Karaoke CD+G Producer: Unknown
EXTT0=
EXTT1=
EXTT2=
EXTT3=
EXTT4=
EXTT5=
EXTT6=
EXTT7=
EXTT8=
EXTT9=
EXTT10=
EXTT11=
EXTT12=
EXTT13=
EXTT14=
PLAYORDER=
